# xmcd CD database file
#
# Track frame offsets:
#	150
#	12836
#	26579
#	43813
#	53172
#	63898
#	77187
#	96029
#	107562
#	119664
#	135063
#	147786
#	160488
#	173659
#	184564
#	202926
#
# Disc length: 2881 seconds
#
# Revision: 1
# Processed by: cddbd v1.5.2PL0 Copyright (c) Steve Scherf et al.
# Submitted via: CDex 1.70beta2
#
DISCID=ca0b3f10
DTITLE=Various Artist - Country feelings 3
DYEAR=1900
DGENRE=Country
TTITLE0=01 Bellamy Brothers - Let your love flow
TTITLE1=02 John Brack - Darling Clementine
TTITLE2=03 Tennessee - Blue train
TTITLE3=04 Pam Gadd - Cotton eyed Joe
TTITLE4=05 Slim Whitmann - Rose Marie
TTITLE5=06 Charlie Pride - I'm so afraid of loosing you again
TTITLE6=07 The Nashville Pickers - In the pines
TTITLE7=08 Kenny Rogers - Me and Bobby Mc Gee
TTITLE8=09 Wanda Jackson - What in the world's come over you
TTITLE9=10 Peter Hinnen - El ranch grande
TTITLE10=11 Lee Hazlewood - These boots are made for walking
TTITLE11=12 Willie Nelson - I just don't understand
TTITLE12=13 Jeff Turner - You can have her
TTITLE13=14 Nashville Music Company - El Paso
TTITLE14=15 The Kingston Trio - Wher have all the flowers gone
TTITLE15=16 Country Connection - Tennesse
EXTD=
EXTT0=
EXTT1=
EXTT2=
EXTT3=
EXTT4=
EXTT5=
EXTT6=
EXTT7=
EXTT8=
EXTT9=
EXTT10=
EXTT11=
EXTT12=
EXTT13=
EXTT14=
EXTT15=
PLAYORDER=
